<svg xmlns="http://www.w3.org/2000/svg" xmlns:xlink="http://www.w3.org/1999/xlink" version="1.1" x="0px" y="0px" viewBox="0 0 256 256" enable-background="new 0 0 256 256" xml:space="preserve">
<metadata> Svg Vector Icons : http://www.onlinewebfonts.com/icon </metadata>
<g><g><path fill="#000000" d="M121.7,128.3c0-34.2,0-68.5,0-102.7c0-1,0-2-0.1-3.1c-0.3-5.5-3.6-9.6-9.2-11.1c-2.3-0.6-4.7-0.9-7.1-1c-5.9-0.1-11.8-0.1-17.8,0c-3.9,0-7.3,1.4-10.1,3.9c-3.9,3.3-5.2,7.6-5.2,12.4c0,67.6,0,135.1,0,202.7c0,2.5,0.2,5.1,0.7,7.6c0.7,4.1,2.7,7.4,7.5,8.3c1,0.2,2,0.3,3,0.3c7.5,0,15,0.1,22.5,0.1c2,0,4.1-0.1,6.1-0.4c5.6-0.6,8.3-2.9,9.2-8.2c0.5-2.8,0.5-5.7,0.5-8.5C121.7,195,121.7,161.6,121.7,128.3z M183.8,169.4L183.8,169.4c0-20.5,0-41,0-61.5c0-1.1,0-2.1-0.1-3.2c-0.4-5.3-3.4-9.3-8.8-10.8c-2.4-0.7-5-1.1-7.6-1.2c-5.8-0.2-11.7-0.1-17.5,0c-4,0-7.5,1.4-10.5,4c-3.9,3.4-5.1,7.8-5.1,12.6c0,39.8,0,79.6,0,119.3c0,2.8,0.2,5.6,0.7,8.3c0.7,4.1,2.6,7.4,7.4,8.3c1,0.2,2,0.3,3.1,0.3c7.5,0.1,15,0.1,22.5,0.1c2,0,4-0.1,5.9-0.3c5.7-0.6,8.4-2.9,9.3-8.3c0.3-1.9,0.5-3.9,0.5-5.9C183.8,210.5,183.8,190,183.8,169.4z M245.9,193.1C245.9,193.1,246,193.1,245.9,193.1c0.1-11.8,0.1-23.6,0.1-35.4c0-1.9,0-3.9-0.1-5.8c-0.3-5.6-3.6-9.6-9.2-11.1c-2-0.6-4.2-0.9-6.4-1c-6.2-0.1-12.4-0.1-18.5-0.1c-2.6,0-4.9,0.7-7.1,1.8c-5.8,3.1-8.2,8-8.2,14.1c0,24.6,0,49.2,0,73.8c0,2.8,0.4,5.6,0.9,8.4c0.8,3.8,3,6.5,7.3,7.3c1,0.2,2,0.3,3,0.3c7.5,0,15,0.1,22.5,0.1c2,0,4-0.1,5.9-0.3c5.7-0.6,8.4-2.9,9.3-8.3c0.3-1.4,0.4-2.8,0.4-4.2C245.9,219.5,245.9,206.3,245.9,193.1z"/><path fill="#FFF8E4" d="M10,84.4c0.2-1.3,0.4-2.7,0.7-4c1.7-6.5,7.8-11.1,15-11.1c5.8,0,11.6-0.1,17.4,0.1c2.5,0.1,5.1,0.5,7.6,1.2c5.3,1.5,8.4,5.5,8.8,10.8c0,0.9,0.1,1.7,0.1,2.6c0,48.5,0,97,0,145.6c0,2.6-0.1,5.2-0.5,7.7c-0.9,5.2-3.5,7.5-9.1,8.2c-2,0.2-4,0.4-6.1,0.4c-7.5,0-15.1,0-22.6-0.1c-1,0-2-0.1-3-0.3c-4.8-0.9-6.7-4.2-7.5-8.3c-0.4-2-0.5-4.1-0.8-6.2C10,182,10,133.2,10,84.4z"/><path fill="#FFF8E4" d="M121.7,128.5c0,33.4,0,66.8,0,100.2c0,2.9,0,5.8-0.5,8.5c-0.9,5.3-3.6,7.6-9.2,8.2c-2,0.2-4,0.4-6.1,0.4c-7.5,0-15,0-22.5-0.1c-1,0-2-0.1-3-0.3c-4.8-0.9-6.8-4.2-7.5-8.3c-0.4-2.5-0.7-5.1-0.7-7.6c0-67.6,0-135.1,0-202.7c0-4.8,1.3-9.1,5.2-12.4c2.9-2.5,6.3-3.8,10.1-3.9c5.9,0,11.8-0.1,17.8,0c2.4,0,4.8,0.4,7.1,1c5.6,1.5,8.9,5.6,9.2,11.1c0.1,1,0.1,2,0.1,3.1C121.7,60,121.7,94.2,121.7,128.5z"/><path fill="#FFF8E4" d="M183.8,169.6c0,20.6,0,41.1,0,61.7c0,2-0.1,3.9-0.5,5.9c-1,5.4-3.6,7.7-9.3,8.3c-2,0.2-4,0.3-5.9,0.3c-7.5,0-15,0-22.5-0.1c-1,0-2.1-0.2-3.1-0.3c-4.8-0.9-6.7-4.2-7.4-8.3c-0.5-2.7-0.7-5.5-0.7-8.3c0-39.8,0-79.6,0-119.3c0-4.8,1.2-9.2,5.1-12.6c2.9-2.6,6.4-3.9,10.5-4c5.9,0,11.7-0.1,17.5,0c2.5,0.1,5.1,0.5,7.6,1.2c5.3,1.5,8.4,5.5,8.8,10.8c0.1,1.1,0.1,2.1,0.1,3.2C183.9,128.6,183.9,149.1,183.8,169.6C183.8,169.6,183.8,169.6,183.8,169.6z"/><path fill="#FFF8E4" d="M245.9,193.3c0,13.2,0,26.4,0,39.7c0,1.4-0.1,2.8-0.4,4.2c-1,5.3-3.6,7.7-9.3,8.3c-2,0.2-4,0.3-5.9,0.3c-7.5,0-15,0-22.5-0.1c-1,0-2-0.1-3-0.3c-4.3-0.8-6.5-3.5-7.3-7.3c-0.6-2.7-0.9-5.6-0.9-8.4c-0.1-24.6-0.1-49.2,0-73.8c0-6.1,2.4-11,8.2-14.1c2.2-1.2,4.6-1.8,7.1-1.8c6.2,0,12.4-0.1,18.5,0.1c2.1,0,4.3,0.4,6.4,1c5.6,1.5,8.9,5.6,9.2,11.1c0.1,1.9,0.1,3.9,0.1,5.8C246,169.6,246,181.5,245.9,193.3C246,193.3,245.9,193.3,245.9,193.3z"/></g></g>
</svg>
